<?xml version="1.0" encoding="UTF-8" standalone="no"?><!DOCTYPE svg PUBLIC "-//W3C//DTD SVG 1.1//EN" "http://www.w3.org/Graphics/SVG/1.1/DTD/svg11.dtd"><!-- Generated by graphviz version 2.40.1 (20161225.0304)
 --><!-- Title: AlertRuleInterpreter Pages: 1 --><svg xmlns="http://www.w3.org/2000/svg" xmlns:xlink="http://www.w3.org/1999/xlink" width="499pt" height="404pt" viewBox="0.00 0.00 498.82 404.00">
<g id="graph0" class="graph" transform="scale(1 1) rotate(0) translate(4 400)">
<title>AlertRuleInterpreter</title>
<polygon fill="#ffffff" stroke="transparent" points="-4,4 -4,-400 494.8223,-400 494.8223,4 -4,4"/>
<!-- 14 -->
<g id="node1" class="node">
<title>14</title>
<ellipse fill="none" stroke="#000000" cx="207.7396" cy="-378" rx="27" ry="18"/>
<text text-anchor="middle" x="207.7396" y="-373.8" font-family="Times,serif" font-size="14.00" fill="#000000">||</text>
</g>
<!-- 2 -->
<g id="node2" class="node">
<title>2</title>
<ellipse fill="none" stroke="#000000" cx="162.7396" cy="-306" rx="27" ry="18"/>
<text text-anchor="middle" x="162.7396" y="-301.8" font-family="Times,serif" font-size="14.00" fill="#000000">&amp;&amp;</text>
</g>
<!-- 14&#45;&gt;2 -->
<g id="edge1" class="edge">
<title>14-&gt;2</title>
<path fill="none" stroke="#000000" d="M197.3026,-361.3008C191.8161,-352.5224 184.971,-341.5703 178.8233,-331.7339"/>
<polygon fill="#000000" stroke="#000000" points="181.7005,-329.7336 173.4325,-323.1086 175.7645,-333.4436 181.7005,-329.7336"/>
</g>
<!-- 13 -->
<g id="node3" class="node">
<title>13</title>
<ellipse fill="none" stroke="#000000" cx="252.7396" cy="-306" rx="27" ry="18"/>
<text text-anchor="middle" x="252.7396" y="-301.8" font-family="Times,serif" font-size="14.00" fill="#000000">||</text>
</g>
<!-- 14&#45;&gt;13 -->
<g id="edge2" class="edge">
<title>14-&gt;13</title>
<path fill="none" stroke="#000000" d="M218.1766,-361.3008C223.6631,-352.5224 230.5082,-341.5703 236.6559,-331.7339"/>
<polygon fill="#000000" stroke="#000000" points="239.7147,-333.4436 242.0467,-323.1086 233.7787,-329.7336 239.7147,-333.4436"/>
</g>
<!-- 0 -->
<g id="node4" class="node">
<title>0</title>
<ellipse fill="none" stroke="#000000" cx="49.7396" cy="-234" rx="49.9804" ry="18"/>
<text text-anchor="middle" x="49.7396" y="-229.8" font-family="Times,serif" font-size="14.00" fill="#000000">key1&gt;100</text>
</g>
<!-- 2&#45;&gt;0 -->
<g id="edge3" class="edge">
<title>2-&gt;0</title>
<path fill="none" stroke="#000000" d="M143.0565,-293.4586C126.4964,-282.907 102.4623,-267.5932 82.9328,-255.1497"/>
<polygon fill="#000000" stroke="#000000" points="84.6342,-252.0836 74.3199,-249.6618 80.8727,-257.9871 84.6342,-252.0836"/>
</g>
<!-- 1 -->
<g id="node5" class="node">
<title>1</title>
<ellipse fill="none" stroke="#000000" cx="162.7396" cy="-234" rx="44.8225" ry="18"/>
<text text-anchor="middle" x="162.7396" y="-229.8" font-family="Times,serif" font-size="14.00" fill="#000000">key2&lt;30</text>
</g>
<!-- 2&#45;&gt;1 -->
<g id="edge4" class="edge">
<title>2-&gt;1</title>
<path fill="none" stroke="#000000" d="M162.7396,-287.8314C162.7396,-280.131 162.7396,-270.9743 162.7396,-262.4166"/>
<polygon fill="#000000" stroke="#000000" points="166.2397,-262.4132 162.7396,-252.4133 159.2397,-262.4133 166.2397,-262.4132"/>
</g>
<!-- 11 -->
<g id="node6" class="node">
<title>11</title>
<ellipse fill="none" stroke="#000000" cx="252.7396" cy="-234" rx="27" ry="18"/>
<text text-anchor="middle" x="252.7396" y="-229.8" font-family="Times,serif" font-size="14.00" fill="#000000">&amp;&amp;</text>
</g>
<!-- 13&#45;&gt;11 -->
<g id="edge5" class="edge">
<title>13-&gt;11</title>
<path fill="none" stroke="#000000" d="M252.7396,-287.8314C252.7396,-280.131 252.7396,-270.9743 252.7396,-262.4166"/>
<polygon fill="#000000" stroke="#000000" points="256.2397,-262.4132 252.7396,-252.4133 249.2397,-262.4133 256.2397,-262.4132"/>
</g>
<!-- 12 -->
<g id="node7" class="node">
<title>12</title>
<ellipse fill="none" stroke="#000000" cx="342.7396" cy="-234" rx="44.8225" ry="18"/>
<text text-anchor="middle" x="342.7396" y="-229.8" font-family="Times,serif" font-size="14.00" fill="#000000">key4=88</text>
</g>
<!-- 13&#45;&gt;12 -->
<g id="edge6" class="edge">
<title>13-&gt;12</title>
<path fill="none" stroke="#000000" d="M270.0925,-292.1177C282.6462,-282.0747 299.8868,-268.2823 314.4221,-256.654"/>
<polygon fill="#000000" stroke="#000000" points="316.9896,-259.0822 322.6119,-250.1022 312.6167,-253.6161 316.9896,-259.0822"/>
</g>
<!-- 5 -->
<g id="node8" class="node">
<title>5</title>
<ellipse fill="none" stroke="#000000" cx="198.7396" cy="-162" rx="27" ry="18"/>
<text text-anchor="middle" x="198.7396" y="-157.8" font-family="Times,serif" font-size="14.00" fill="#000000">||</text>
</g>
<!-- 11&#45;&gt;5 -->
<g id="edge7" class="edge">
<title>11-&gt;5</title>
<path fill="none" stroke="#000000" d="M240.4862,-217.6621C233.5819,-208.4564 224.8219,-196.7764 217.1111,-186.4953"/>
<polygon fill="#000000" stroke="#000000" points="219.7446,-184.1733 210.9446,-178.2733 214.1446,-188.3733 219.7446,-184.1733"/>
</g>
<!-- 10 -->
<g id="node9" class="node">
<title>10</title>
<ellipse fill="none" stroke="#000000" cx="306.7396" cy="-162" rx="27" ry="18"/>
<text text-anchor="middle" x="306.7396" y="-157.8" font-family="Times,serif" font-size="14.00" fill="#000000">&amp;&amp;</text>
</g>
<!-- 11&#45;&gt;10 -->
<g id="edge8" class="edge">
<title>11-&gt;10</title>
<path fill="none" stroke="#000000" d="M264.993,-217.6621C271.8973,-208.4564 280.6573,-196.7764 288.3681,-186.4953"/>
<polygon fill="#000000" stroke="#000000" points="291.3346,-188.3733 294.5347,-178.2733 285.7346,-184.1733 291.3346,-188.3733"/>
</g>
<!-- 3 -->
<g id="node10" class="node">
<title>3</title>
<ellipse fill="none" stroke="#000000" cx="100.7396" cy="-90" rx="40.1655" ry="18"/>
<text text-anchor="middle" x="100.7396" y="-85.8" font-family="Times,serif" font-size="14.00" fill="#000000">key7=8</text>
</g>
<!-- 5&#45;&gt;3 -->
<g id="edge9" class="edge">
<title>5-&gt;3</title>
<path fill="none" stroke="#000000" d="M180.3066,-148.4574C166.1419,-138.0507 146.3033,-123.4753 129.9793,-111.4822"/>
<polygon fill="#000000" stroke="#000000" points="131.9431,-108.5819 121.812,-105.4817 127.7985,-114.2231 131.9431,-108.5819"/>
</g>
<!-- 4 -->
<g id="node11" class="node">
<title>4</title>
<ellipse fill="none" stroke="#000000" cx="198.7396" cy="-90" rx="40.1655" ry="18"/>
<text text-anchor="middle" x="198.7396" y="-85.8" font-family="Times,serif" font-size="14.00" fill="#000000">key8=2</text>
</g>
<!-- 5&#45;&gt;4 -->
<g id="edge10" class="edge">
<title>5-&gt;4</title>
<path fill="none" stroke="#000000" d="M198.7396,-143.8314C198.7396,-136.131 198.7396,-126.9743 198.7396,-118.4166"/>
<polygon fill="#000000" stroke="#000000" points="202.2397,-118.4132 198.7396,-108.4133 195.2397,-118.4133 202.2397,-118.4132"/>
</g>
<!-- 6 -->
<g id="node12" class="node">
<title>6</title>
<ellipse fill="none" stroke="#000000" cx="306.7396" cy="-90" rx="49.9804" ry="18"/>
<text text-anchor="middle" x="306.7396" y="-85.8" font-family="Times,serif" font-size="14.00" fill="#000000">key3&lt;100</text>
</g>
<!-- 10&#45;&gt;6 -->
<g id="edge11" class="edge">
<title>10-&gt;6</title>
<path fill="none" stroke="#000000" d="M306.7396,-143.8314C306.7396,-136.131 306.7396,-126.9743 306.7396,-118.4166"/>
<polygon fill="#000000" stroke="#000000" points="310.2397,-118.4132 306.7396,-108.4133 303.2397,-118.4133 310.2397,-118.4132"/>
</g>
<!-- 9 -->
<g id="node13" class="node">
<title>9</title>
<ellipse fill="none" stroke="#000000" cx="401.7396" cy="-90" rx="27" ry="18"/>
<text text-anchor="middle" x="401.7396" y="-85.8" font-family="Times,serif" font-size="14.00" fill="#000000">||</text>
</g>
<!-- 10&#45;&gt;9 -->
<g id="edge12" class="edge">
<title>10-&gt;9</title>
<path fill="none" stroke="#000000" d="M324.6084,-148.4574C338.9802,-137.565 359.3777,-122.1059 375.5872,-109.8207"/>
<polygon fill="#000000" stroke="#000000" points="377.7723,-112.5564 383.628,-103.7267 373.5442,-106.9776 377.7723,-112.5564"/>
</g>
<!-- 7 -->
<g id="node14" class="node">
<title>7</title>
<ellipse fill="none" stroke="#000000" cx="352.7396" cy="-18" rx="40.1655" ry="18"/>
<text text-anchor="middle" x="352.7396" y="-13.8" font-family="Times,serif" font-size="14.00" fill="#000000">key5=8</text>
</g>
<!-- 9&#45;&gt;7 -->
<g id="edge13" class="edge">
<title>9-&gt;7</title>
<path fill="none" stroke="#000000" d="M390.3749,-73.3008C384.4873,-64.6496 377.1629,-53.8873 370.5445,-44.1623"/>
<polygon fill="#000000" stroke="#000000" points="373.2461,-41.9111 364.7264,-35.6132 367.4591,-45.8495 373.2461,-41.9111"/>
</g>
<!-- 8 -->
<g id="node15" class="node">
<title>8</title>
<ellipse fill="none" stroke="#000000" cx="450.7396" cy="-18" rx="40.1655" ry="18"/>
<text text-anchor="middle" x="450.7396" y="-13.8" font-family="Times,serif" font-size="14.00" fill="#000000">key6&gt;4</text>
</g>
<!-- 9&#45;&gt;8 -->
<g id="edge14" class="edge">
<title>9-&gt;8</title>
<path fill="none" stroke="#000000" d="M413.1044,-73.3008C418.9919,-64.6496 426.3163,-53.8873 432.9347,-44.1623"/>
<polygon fill="#000000" stroke="#000000" points="436.0201,-45.8495 438.7529,-35.6132 430.2331,-41.9111 436.0201,-45.8495"/>
</g>
</g>
</svg>